<?xml version="1.0" encoding="iso-8859-1"?>
<!-- Generator: Adobe Illustrator 16.0.0, SVG Export Plug-In . SVG Version: 6.00 Build 0)  -->
<!DOCTYPE svg PUBLIC "-//W3C//DTD SVG 1.1//EN" "http://www.w3.org/Graphics/SVG/1.1/DTD/svg11.dtd">
<svg version="1.1" id="Capa_1" xmlns="http://www.w3.org/2000/svg" xmlns:xlink="http://www.w3.org/1999/xlink" x="0px" y="0px"
	 width="84.159px" height="84.159px" viewBox="0 0 84.159 84.159" style="enable-background:new 0 0 84.159 84.159;"
	 xml:space="preserve">
<g>
	<path d="M42.32,34.211c-1.566-3.089-3.307-6.32-5.57-9.459c0.404-0.383,0.817-0.759,1.248-1.129
		c6.154-5.28,14.372-7.844,25.121-7.844V0l21.039,21.037L63.12,42.078V26.297C52.026,26.297,46.296,29.408,42.32,34.211z
		 M63.12,57.857c-17.788,0-21.79-8-26.854-18.131c-2.821-5.637-5.735-11.467-11.144-16.103C18.965,18.343,10.75,15.779,0,15.779
		v10.519c17.789,0,21.79,8.001,26.854,18.134c2.821,5.639,5.735,11.467,11.144,16.104c6.154,5.279,14.372,7.843,25.121,7.843v15.781
		l21.039-21.04L63.12,42.079V57.857z M0,57.857v10.52c10.749,0,18.965-2.562,25.121-7.842c0.431-0.369,0.845-0.745,1.248-1.13
		c-2.263-3.14-4.004-6.37-5.571-9.46C16.825,54.749,11.093,57.857,0,57.857z"/>
</g>
<g>
</g>
<g>
</g>
<g>
</g>
<g>
</g>
<g>
</g>
<g>
</g>
<g>
</g>
<g>
</g>
<g>
</g>
<g>
</g>
<g>
</g>
<g>
</g>
<g>
</g>
<g>
</g>
<g>
</g>
</svg>
