<?xml version="1.0" encoding="iso-8859-1"?>
<!-- Generator: Adobe Illustrator 19.0.0, SVG Export Plug-In . SVG Version: 6.00 Build 0)  -->
<svg version="1.1" id="Capa_1" xmlns="http://www.w3.org/2000/svg" xmlns:xlink="http://www.w3.org/1999/xlink" x="0px" y="0px"
	 viewBox="0 0 512 512" style="enable-background:new 0 0 512 512;" xml:space="preserve">
<g>
	<g>
		<path d="M494.385,94.238H176.734v35.229h300.037v215.486h-299.45v35.229h317.064c9.729,0,17.615-7.885,17.615-17.615V111.853
			C512,102.124,504.115,94.238,494.385,94.238z"/>
	</g>
</g>
<g>
	<g>
		<path d="M401.615,410.716H247.78c-9.729,0-17.615,7.886-17.615,17.615c0,9.729,7.885,17.615,17.615,17.615h153.835
			c9.735,0,17.615-7.885,17.615-17.615C419.229,418.601,411.344,410.716,401.615,410.716z"/>
	</g>
</g>
<g>
	<g>
		<rect x="275.963" y="362.569" width="35.229" height="67.523"/>
	</g>
</g>
<g>
	<g>
		<rect x="338.202" y="362.569" width="35.229" height="67.523"/>
	</g>
</g>
<g>
	<g>
		<rect x="177.321" y="282.128" width="317.064" height="35.229"/>
	</g>
</g>
<g>
	<g>
		<path d="M177.908,65.468H17.615C7.885,65.468,0,73.353,0,83.083v345.835c0,9.729,7.885,17.615,17.615,17.615h160.294
			c9.729,0,17.615-7.88,17.615-17.615V83.083C195.523,73.353,187.637,65.468,177.908,65.468z M160.294,411.303H35.229V100.697
			h125.064V411.303z"/>
	</g>
</g>
<g>
	<g>
		<path d="M125.651,210.495H68.697c-9.729,0-17.615,7.885-17.615,17.615s7.885,17.615,17.615,17.615h56.954
			c9.729,0,17.615-7.885,17.615-17.615S135.381,210.495,125.651,210.495z"/>
	</g>
</g>
<g>
	<g>
		<path d="M105.688,335.56H88.661c-9.729,0-17.615,7.885-17.615,17.615s7.885,17.615,17.615,17.615h17.028
			c9.729,0,17.615-7.885,17.615-17.615S115.417,335.56,105.688,335.56z"/>
	</g>
</g>
<g>
	<g>
		<path d="M125.651,153.541H68.697c-9.729,0-17.615,7.885-17.615,17.615c0,9.729,7.885,17.615,17.615,17.615h56.954
			c9.729,0,17.615-7.886,17.615-17.615C143.266,161.427,135.381,153.541,125.651,153.541z"/>
	</g>
</g>
<g>
</g>
<g>
</g>
<g>
</g>
<g>
</g>
<g>
</g>
<g>
</g>
<g>
</g>
<g>
</g>
<g>
</g>
<g>
</g>
<g>
</g>
<g>
</g>
<g>
</g>
<g>
</g>
<g>
</g>
</svg>
